<?xml version="1.0" standalone="no"?>
<!DOCTYPE svg PUBLIC "-//W3C//DTD SVG 20010904//EN"
 "http://www.w3.org/TR/2001/REC-SVG-20010904/DTD/svg10.dtd">
<svg version="1.0" xmlns="http://www.w3.org/2000/svg"
 width="1280.000000pt" height="384.000000pt" viewBox="0 0 1280.000000 384.000000"
 preserveAspectRatio="xMidYMid meet">

<g transform="translate(0.000000,384.000000) scale(0.100000,-0.100000)"
fill="#000000" stroke="none">
<path d="M6604 2771 c-24 -11 -19 0 -90 -201 -30 -85 -60 -159 -65 -165 -11
-10 -7 122 6 196 15 81 -47 148 -143 156 -102 8 -172 -52 -172 -148 l0 -49
-92 0 c-51 0 -103 -3 -115 -6 -22 -6 -23 -4 -23 53 0 87 -10 93 -148 93 -138
0 -142 -4 -142 -127 0 -46 -3 -83 -6 -83 -3 0 -20 11 -37 24 -64 47 -169 64
-269 44 -37 -8 -73 -11 -80 -6 -18 11 -196 10 -218 -2 -10 -5 -24 -26 -30 -45
-15 -44 -25 -44 -40 0 -6 19 -20 40 -30 45 -11 6 -105 10 -218 10 -164 0 -202
-3 -212 -15 -11 -13 -15 -13 -33 0 -16 11 -50 15 -124 15 -92 0 -104 -2 -123
-22 -11 -12 -20 -25 -20 -30 0 -5 -18 4 -40 18 -25 17 -65 30 -110 37 l-70 11
0 47 c0 71 -15 79 -141 79 -141 0 -143 -2 -148 -120 -3 -85 -4 -90 -20 -76
-88 80 -304 80 -392 0 -15 -13 -17 -8 -22 57 -9 104 -16 109 -146 109 -58 0
-111 -4 -117 -8 -18 -12 -34 -49 -34 -79 0 -27 -2 -26 -51 30 l-51 57 -97 0
c-82 0 -101 -3 -114 -18 -15 -16 -17 -52 -17 -300 0 -345 -10 -322 143 -322
122 0 147 13 147 78 l0 37 54 -57 53 -58 87 0 c96 0 122 9 136 46 l9 24 47
-30 c97 -61 237 -62 335 -1 44 27 49 28 54 12 14 -45 31 -49 215 -52 172 -3
176 -3 225 23 28 14 61 37 74 51 l23 25 29 -33 c48 -54 137 -78 239 -64 8 1
54 1 102 1 l87 -2 -2 -42 c-2 -37 2 -44 32 -65 106 -72 270 -48 346 51 15 19
39 65 55 103 16 37 32 69 37 70 4 2 14 -11 22 -28 26 -59 143 -108 221 -94 19
4 136 7 260 6 187 -1 228 2 248 15 21 14 26 14 47 0 20 -13 58 -16 210 -16
173 0 185 -1 185 -18 0 -41 30 -52 138 -52 121 0 114 -5 166 146 19 54 39 113
46 129 l12 30 26 -51 c35 -67 58 -94 110 -132 93 -66 248 -81 359 -33 l51 23
30 -22 c26 -20 37 -21 133 -16 126 6 119 6 251 0 87 -4 111 -2 131 11 22 14
27 14 63 -2 32 -14 68 -16 209 -14 181 2 215 11 215 51 0 26 4 25 53 -10 23
-16 63 -34 89 -38 57 -11 336 -3 361 10 10 5 25 25 33 44 14 34 16 35 67 32
48 -3 53 -6 68 -36 21 -46 34 -52 115 -52 l71 0 5 -50 c8 -82 22 -90 148 -90
125 0 140 9 140 79 0 25 5 43 13 45 6 2 39 8 71 15 33 6 77 22 98 36 l38 25 0
-74 0 -73 58 -7 c31 -4 71 -15 87 -26 39 -26 106 -27 128 -2 9 10 20 40 23 65
6 43 9 47 34 47 53 0 127 30 173 70 60 53 82 111 81 210 0 90 -31 159 -91 209
-61 51 -106 59 -291 53 l-163 -5 -21 -28 -21 -28 -27 19 c-55 39 -80 43 -260
41 -210 -2 -210 -2 -220 -108 -6 -60 -8 -65 -17 -43 -69 160 -95 217 -108 237
-15 22 -21 23 -129 23 -95 0 -115 -3 -129 -17 -8 -10 -38 -70 -65 -133 -28
-63 -55 -116 -61 -118 -7 -2 -11 14 -11 43 0 59 -12 82 -50 90 -26 6 -30 11
-30 41 0 61 -24 74 -142 74 -57 0 -108 -4 -114 -8 -17 -11 -34 -48 -34 -75 0
-15 -10 -31 -25 -41 -22 -15 -26 -15 -57 3 -85 50 -230 48 -348 -5 l-59 -26
-34 26 c-33 25 -119 48 -162 43 -17 -2 -20 5 -23 48 -5 78 -17 85 -139 85
-114 0 -138 -7 -147 -44 l-6 -25 -48 22 c-39 18 -65 22 -152 22 -94 0 -111 -3
-164 -27 -58 -28 -58 -28 -52 -5 18 61 18 83 -2 107 -18 23 -28 25 -109 27
-48 2 -97 -1 -109 -6z m70 -69 c-6 -4 -60 -149 -120 -322 -98 -284 -109 -311
-112 -270 -3 43 40 179 178 568 10 25 18 32 38 32 15 0 22 -4 16 -8z m-384
-30 c-41 -20 -62 -56 -56 -94 6 -32 -1 -36 -20 -10 -38 50 5 122 73 122 l38 0
-35 -18z m460 -3 c0 -9 -129 -387 -210 -616 -10 -29 -17 -33 -46 -33 -19 0
-34 2 -34 3 0 8 219 637 225 647 8 14 65 13 65 -1z m-372 -21 c32 -32 -1 -101
-54 -114 -55 -14 -85 58 -42 103 24 25 76 31 96 11z m-2610 -285 c-2 -192 -6
-267 -15 -270 -8 -3 -12 65 -12 266 -1 236 1 271 14 271 13 0 15 -34 13 -267z
m1950 0 c-2 -173 -7 -267 -13 -266 -6 2 -11 102 -13 268 -2 233 0 265 13 265
13 0 15 -33 13 -267z m1620 0 c-2 -173 -7 -267 -13 -266 -6 2 -11 101 -12 268
-2 228 0 265 13 265 12 0 14 -37 12 -267z m-356 232 c-83 -26 -151 -90 -183
-170 -6 -16 -11 -60 -12 -97 0 -56 5 -79 30 -128 26 -52 27 -58 10 -47 -32 21
-77 110 -84 164 -17 145 107 294 242 292 l40 0 -43 -14z m-4282 -247 c-7 -337
-24 -336 -28 2 -2 233 -1 250 15 250 17 0 18 -16 13 -252z m340 151 c0 -76 -3
-100 -12 -97 -9 3 -14 35 -16 101 -2 82 0 97 13 97 12 0 15 -17 15 -101z m860
35 c0 -55 3 -65 15 -60 21 8 19 -16 -7 -66 -18 -35 -22 -57 -21 -137 0 -53 5
-107 10 -121 15 -36 -13 -62 -63 -58 l-39 3 -3 253 -2 252 55 0 55 0 0 -66z
m1940 -37 c0 -108 4 -124 27 -106 10 9 13 6 13 -13 0 -13 -4 -28 -9 -33 -5 -6
-12 -39 -15 -75 -16 -186 -14 -180 -51 -180 -68 0 -65 -14 -65 261 l0 249 50
0 50 0 0 -103z m1620 37 c0 -61 1 -66 20 -61 25 6 26 -14 3 -54 -13 -22 -15
-34 -7 -47 7 -12 7 -24 -3 -42 -8 -16 -13 -64 -13 -132 l0 -108 -34 0 c-70 0
-66 -14 -66 261 l0 249 50 0 50 0 0 -66z m1355 39 c-7 -16 -52 -119 -100 -230
-81 -187 -105 -226 -105 -170 0 12 39 112 88 224 75 174 90 203 109 203 20 0
21 -2 8 -27z m-1628 -10 c57 -26 61 -40 22 -79 l-35 -35 -59 16 c-74 19 -108
19 -145 0 -38 -20 -60 -63 -60 -117 0 -59 29 -102 89 -133 61 -31 121 -33 166
-5 l32 20 23 -25 c23 -24 23 -25 5 -45 -36 -40 -123 -74 -189 -74 -91 1 -160
45 -202 131 -26 52 -26 174 0 223 65 124 227 180 353 123z m1153 -40 c-4 -51
-8 -58 -30 -63 -22 -5 -25 -12 -28 -53 -5 -75 -32 -55 -32 24 0 35 3 39 25 39
23 0 25 3 25 48 0 52 5 62 29 62 14 0 15 -9 11 -57z m-5435 -35 c37 -46 83
-96 101 -111 29 -25 34 -35 34 -73 l0 -44 40 0 c48 0 50 11 10 64 -29 38 -30
44 -30 143 l0 103 55 0 55 0 -2 -237 -3 -238 -40 -3 c-22 -1 -45 1 -51 5 -6 5
-47 53 -92 107 -55 67 -82 108 -82 125 0 58 -10 71 -51 71 -43 0 -49 -12 -24
-47 12 -18 15 -47 13 -140 l-3 -118 -52 -3 -53 -3 0 240 0 241 53 0 54 0 68
-82z m6161 -152 c56 -129 99 -237 96 -240 -3 -3 -27 -6 -53 -6 -38 0 -51 4
-59 20 -13 23 -6 40 16 40 16 0 16 0 -16 95 -15 44 -21 50 -47 53 -26 3 -32
10 -50 60 -18 51 -19 61 -6 97 17 49 11 65 -24 65 -49 0 -55 -11 -36 -63 18
-50 12 -73 -11 -41 -14 18 -15 18 -26 -11 -6 -16 -17 -47 -23 -67 -7 -24 -19
-38 -31 -40 -23 -4 -70 -130 -55 -145 6 -6 6 -20 0 -36 -9 -23 -16 -27 -50
-27 -22 0 -42 3 -45 8 -2 4 33 95 80 202 46 107 91 212 99 233 l15 37 62 0 63
0 101 -234z m-606 168 l0 -45 -47 3 c-44 3 -48 5 -51 31 -6 48 3 57 53 57 l45
0 0 -46z m-5035 -21 c-62 -19 -120 -64 -145 -114 -22 -42 -27 -130 -10 -175
18 -47 1 -39 -21 11 -54 122 10 254 139 284 63 15 91 11 37 -6z m580 7 c-28
-12 -47 -12 -40 0 3 6 18 10 33 9 24 0 25 -1 7 -9z m1345 -9 c-36 -10 -73 -21
-82 -25 -19 -9 -26 8 -8 19 14 9 90 23 125 23 19 1 6 -6 -35 -17z m2221 3
c-19 -8 -37 -12 -40 -9 -9 10 22 25 49 24 23 0 22 -1 -9 -15z m384 0 c-33 -8
-71 -23 -84 -33 -22 -17 -23 -19 -7 -49 19 -36 20 -42 6 -42 -7 0 -50 82 -50
95 0 5 83 34 110 38 64 10 80 4 25 -9z m1496 1 c-18 -8 -38 -12 -44 -8 -13 8
19 21 53 22 23 0 22 -1 -9 -14z m510 0 c-18 -8 -38 -12 -44 -8 -13 8 19 21 53
22 23 0 22 -1 -9 -14z m-5682 -17 c-14 -27 -6 -258 11 -302 14 -39 6 -44 -17
-10 -15 23 -19 53 -21 181 -3 150 -3 153 18 153 18 0 19 -3 9 -22z m271 -100
c-3 -68 -9 -129 -13 -135 -5 -7 -19 -13 -33 -13 l-25 0 20 26 c18 23 21 41 21
135 0 97 2 109 18 109 15 0 17 -11 12 -122z m526 100 c-7 -13 -26 -56 -41 -97
-19 -51 -30 -69 -36 -60 -14 22 -11 39 18 111 22 57 30 68 50 68 22 0 22 -2 9
-22z m886 -22 c-34 -33 -48 -41 -50 -29 -5 21 47 73 74 73 20 0 17 -6 -24 -44z
m288 -153 c-7 -264 -24 -264 -28 0 -2 183 -1 197 15 197 17 0 18 -13 13 -197z
m2680 188 c0 -6 -4 -13 -10 -16 -5 -3 -10 1 -10 9 0 9 5 16 10 16 6 0 10 -4
10 -9z m302 -178 c-3 -167 -5 -186 -18 -169 -11 16 -14 57 -14 188 0 153 2
168 18 168 16 0 17 -14 14 -187z m510 -83 c-2 -229 -5 -270 -17 -270 -13 0
-15 39 -15 270 0 250 1 270 18 270 16 0 17 -18 14 -270z m-6140 223 c51 -30
72 -66 76 -136 7 -102 -35 -165 -133 -203 -57 -21 -145 -15 -183 13 -95 70
-105 198 -23 285 61 66 187 85 263 41z m502 13 c42 -17 75 -71 82 -133 15
-123 -70 -233 -179 -233 -44 0 -57 15 -57 67 0 40 2 43 19 33 58 -30 111 8
111 80 0 54 -20 79 -79 95 -31 9 -36 15 -39 42 -3 26 2 34 25 47 35 19 74 20
117 2z m1445 -13 c45 -34 51 -58 51 -211 l0 -143 -37 3 c-37 3 -38 4 -43 48
-3 25 -9 50 -13 57 -4 6 -3 14 3 18 5 3 10 26 10 50 0 37 -5 47 -35 73 -35 32
-101 49 -151 39 -30 -5 -65 36 -46 55 39 39 213 46 261 11z m2151 2 c29 -26
42 -107 38 -235 l-3 -115 -45 0 -45 0 -5 111 c-5 116 -15 144 -52 144 -38 0
-58 19 -58 54 0 30 5 36 38 50 44 19 106 15 132 -9z m446 0 c44 -28 54 -71 54
-220 l0 -135 -34 0 c-19 0 -38 5 -42 11 -4 6 -6 56 -6 111 0 96 -1 101 -26
124 -33 29 -91 46 -144 42 -35 -2 -42 1 -54 24 -16 31 -13 35 55 54 59 17 163
12 197 -11z m1420 9 c69 -33 99 -176 54 -264 -35 -69 -113 -111 -175 -96 -22
6 -25 12 -25 51 l0 44 35 -6 c67 -11 111 60 81 130 -12 30 -22 38 -58 47 -67
17 -68 18 -68 43 0 56 86 84 156 51z m510 0 c90 -43 102 -242 18 -315 -29 -26
-81 -49 -108 -49 -46 0 -56 9 -56 56 0 43 0 43 31 37 69 -13 116 57 86 129
-13 31 -23 39 -59 48 -69 18 -70 18 -66 47 2 20 13 33 38 45 43 22 72 23 116
2z m-5676 -71 c0 -105 12 -143 56 -170 88 -56 123 -8 124 170 l0 78 48 -3 47
-3 0 -180 0 -180 -44 -3 c-42 -3 -43 -2 -36 20 12 41 10 60 -8 72 -22 14 -37
-5 -37 -46 0 -29 -16 -46 -23 -26 -3 10 -13 9 -41 -4 -45 -22 -95 -23 -124 -2
-45 31 -56 70 -60 217 l-4 137 51 0 51 0 0 -77z m516 -8 c18 -45 38 -80 45
-80 27 0 30 -36 9 -93 -25 -66 -45 -97 -54 -83 -11 18 -136 324 -136 333 0 5
24 8 53 6 l52 -3 31 -80z m245 38 c-10 -27 -33 -84 -51 -128 -18 -44 -37 -91
-42 -105 -10 -24 -11 -23 -29 24 l-20 50 22 60 c54 145 54 146 98 146 l41 0
-19 -47z m949 38 c0 -4 -28 -35 -62 -68 -35 -32 -80 -79 -100 -104 l-37 -44
-1 60 c0 58 1 60 52 112 49 49 56 53 100 53 26 0 48 -4 48 -9z m260 -176 l0
-185 -34 0 c-68 0 -66 -6 -66 184 0 95 3 176 7 179 3 4 26 7 50 7 l43 0 0
-185z m3020 182 c0 -2 -7 -18 -15 -35 -33 -66 -38 -213 -10 -283 3 -10 2 -20
-4 -24 -6 -3 -11 -40 -11 -86 l0 -79 -45 0 -45 0 0 255 0 255 65 0 c36 0 65
-2 65 -3z m488 -44 c-16 -36 -21 -68 -21 -138 0 -49 6 -103 12 -119 8 -20 9
-32 1 -40 -5 -5 -10 -45 -10 -89 l0 -78 -47 3 -48 3 -3 240 c-1 132 0 245 2
252 4 9 27 13 70 13 l65 0 -21 -47z m-5050 -155 c40 -97 72 -182 72 -188 0 -5
-9 -10 -20 -10 -16 0 -19 5 -15 23 4 14 -18 78 -60 181 -59 145 -79 205 -57
181 5 -6 41 -90 80 -187z m3507 132 c0 -26 -5 -45 -12 -47 -9 -3 -13 10 -13
47 0 37 4 50 13 48 7 -3 12 -22 12 -48z m165 10 c0 -35 -4 -42 -27 -51 -15 -5
-45 -9 -67 -7 -34 3 -42 7 -44 27 -2 12 -1 34 2 47 6 22 11 24 71 24 l65 0 0
-40z m37 -22 c-2 -13 -4 -3 -4 22 0 25 2 35 4 23 2 -13 2 -33 0 -45z m-3273
15 c9 -18 13 -33 8 -33 -9 0 -32 44 -32 62 0 15 4 10 24 -29z m1831 -3 c44
-35 73 -38 108 -10 14 11 28 20 31 20 3 0 6 -22 6 -50 0 -27 -3 -50 -6 -50 -3
0 -19 11 -36 25 -38 32 -50 31 -91 -5 -36 -32 -83 -40 -105 -18 -19 19 -14 76
8 98 27 27 41 25 85 -10z m-945 -80 c0 -38 -3 -70 -7 -70 -5 0 -20 17 -34 38
l-27 37 25 33 c14 17 29 32 34 32 5 0 9 -31 9 -70z m-3280 50 c0 -5 -2 -10 -4
-10 -3 0 -8 5 -11 10 -3 6 -1 10 4 10 6 0 11 -4 11 -10z m6065 -32 c5 -21 3
-28 -7 -28 -9 0 -15 13 -16 37 -3 43 12 36 23 -9z m-3480 2 c3 -5 -1 -10 -10
-10 -9 0 -13 5 -10 10 3 6 8 10 10 10 2 0 7 -4 10 -10z m2605 0 c0 -5 -7 -10
-16 -10 -8 0 -12 5 -9 10 3 6 10 10 16 10 5 0 9 -4 9 -10z m-4009 -21 c6 -12
8 -36 5 -54 -6 -32 -21 -45 -53 -45 -14 0 -13 3 2 21 12 12 19 36 20 60 0 43
9 50 26 18z m1342 14 c-7 -2 -19 -2 -25 0 -7 3 -2 5 12 5 14 0 19 -2 13 -5z
m2600 0 c-7 -2 -19 -2 -25 0 -7 3 -2 5 12 5 14 0 19 -2 13 -5z m1521 -26 c15
-42 -3 -81 -39 -85 l-30 -4 20 22 c12 14 20 36 20 61 0 44 15 47 29 6z m504
21 c15 -15 16 -63 2 -89 -6 -10 -21 -19 -34 -19 l-24 0 19 38 c11 21 17 47 14
60 -6 24 4 29 23 10z m-4708 -6 c0 -5 -11 -14 -25 -20 -36 -16 -58 -67 -52
-119 5 -48 -4 -56 -21 -18 -15 32 -15 80 -1 106 18 34 99 75 99 51z m2295
-105 c0 -147 -19 -146 -23 1 -2 89 0 113 10 110 10 -4 13 -33 13 -111z m305
109 c0 -2 -19 -22 -41 -45 -41 -41 -42 -42 -36 -99 5 -51 4 -55 -9 -38 -8 12
-14 43 -14 76 0 46 4 60 23 77 27 25 77 44 77 29z m430 -82 c3 -43 9 -85 13
-91 5 -7 4 -13 -2 -13 -17 0 -39 53 -47 108 -7 57 -1 86 19 80 7 -3 14 -33 17
-84z m120 42 c0 -42 3 -47 45 -77 25 -18 48 -43 51 -56 5 -18 11 -22 26 -17
15 4 19 2 16 -12 -2 -15 -16 -18 -72 -21 -82 -5 -121 9 -142 49 -18 35 -29
117 -20 152 6 23 11 26 51 26 l45 0 0 -44z m-5380 14 c0 -5 -2 -10 -4 -10 -3
0 -8 5 -11 10 -3 6 -1 10 4 10 6 0 11 -4 11 -10z m2395 -20 c0 -23 -3 -25 -60
-25 -53 0 -60 -2 -63 -21 -4 -30 60 -77 98 -72 35 5 49 -18 25 -41 -13 -14
-15 -14 -15 2 0 21 -2 21 -42 -3 -77 -47 -158 -11 -158 70 0 49 12 75 43 92
28 15 91 26 137 24 30 -1 35 -4 35 -26z m2600 0 c0 -23 -3 -25 -60 -25 -53 0
-60 -2 -63 -21 -4 -30 60 -77 98 -72 35 5 49 -18 25 -41 -13 -14 -15 -14 -15
2 0 21 -2 21 -42 -3 -37 -22 -95 -26 -119 -7 -37 28 -51 96 -29 137 19 36 91
60 170 56 30 -1 35 -4 35 -26z m-2065 15 c0 -2 -10 -10 -22 -16 -21 -11 -22
-11 -9 4 13 16 31 23 31 12z m1150 -25 c13 -9 12 -12 -4 -25 -22 -16 -84 -31
-93 -21 -3 3 5 10 19 15 13 5 30 16 37 25 16 19 21 19 41 6z m1680 1 c0 -19
-21 -66 -33 -73 -17 -11 -37 -10 -37 2 0 6 7 26 14 45 10 24 22 35 35 35 12 0
21 -4 21 -9z m134 -31 c9 -22 16 -44 16 -48 0 -10 -122 -3 -133 8 -5 4 -2 24
7 44 14 33 19 36 54 36 37 0 41 -3 56 -40z m52 4 c20 -48 14 -80 -8 -39 -24
46 -31 75 -18 75 6 0 18 -16 26 -36z m-2929 -53 c34 -44 59 -82 56 -85 -8 -8
-107 -8 -128 0 -9 4 -32 27 -51 52 l-35 46 38 33 c21 18 43 32 48 33 6 0 38
-36 72 -79z m-2173 34 c3 -8 1 -15 -4 -15 -6 0 -10 7 -10 15 0 8 2 15 4 15 2
0 6 -7 10 -15z m5466 -27 c0 -36 -4 -35 -14 5 -4 16 -2 27 4 27 5 0 10 -14 10
-32z m510 0 c0 -36 -4 -35 -14 5 -4 16 -2 27 4 27 5 0 10 -14 10 -32z m-5135
2 c7 -23 -2 -43 -16 -35 -12 8 -12 55 0 55 5 0 12 -9 16 -20z m255 -21 c0 -18
-47 -66 -56 -57 -3 3 -1 14 5 25 6 10 16 31 22 48 8 23 12 26 19 15 6 -8 10
-22 10 -31z m450 26 c-7 -8 -21 -15 -32 -15 -17 0 -18 3 -8 15 7 8 21 15 32
15 17 0 18 -3 8 -15z m2600 0 c-7 -8 -21 -15 -32 -15 -17 0 -18 3 -8 15 7 8
21 15 32 15 17 0 18 -3 8 -15z m950 -88 c0 -20 -25 1 -28 24 -2 23 -2 23 13 5
8 -11 15 -24 15 -29z m-3987 -9 c-21 -57 -58 -105 -97 -129 -33 -20 -130 -27
-141 -9 -3 5 3 27 15 49 18 36 23 39 43 32 39 -15 80 0 135 51 30 26 55 48 58
48 2 0 -4 -19 -13 -42z m-230 -24 c10 -10 -42 -104 -58 -104 -20 0 -19 11 7
65 20 42 36 54 51 39z m1635 -31 c-4 -22 -38 -30 -38 -10 0 14 13 24 33 26 5
1 7 -7 5 -16z m2792 -43 c0 -38 -4 -50 -15 -50 -11 0 -15 12 -15 50 0 38 4 50
15 50 11 0 15 -12 15 -50z"/>
<path d="M3406 2348 c-9 -12 -16 -39 -16 -59 0 -31 7 -43 42 -73 49 -42 85
-46 116 -13 48 51 33 134 -29 156 -52 18 -96 14 -113 -11z m144 -70 c0 -44
-17 -68 -47 -68 l-26 0 21 23 c15 16 22 36 22 61 0 33 2 37 15 26 8 -7 15 -26
15 -42z"/>
<path d="M2283 1870 c-39 -16 -43 -40 -43 -269 0 -266 -2 -261 109 -261 51 0
74 4 86 16 15 15 17 15 34 0 21 -19 160 -23 178 -5 9 9 22 8 53 -5 49 -20 150
-20 204 -1 34 12 43 12 69 -2 24 -12 47 -14 111 -8 45 4 135 7 201 6 66 0 125
3 131 7 24 15 34 54 35 129 l2 78 7 -66 c9 -75 17 -93 55 -129 21 -20 39 -25
93 -28 45 -3 80 1 103 11 25 10 41 12 53 5 9 -5 49 -7 89 -4 40 2 77 5 82 4
228 -7 454 -7 475 2 20 8 34 7 63 -5 66 -28 208 -15 238 21 8 9 17 42 21 73 4
31 10 70 13 87 9 43 -12 137 -37 170 -51 64 -177 84 -259 41 l-43 -23 -36 24
c-30 21 -43 23 -90 18 -30 -3 -59 -6 -65 -5 -5 0 -67 3 -136 6 l-127 5 -5 44
c-7 67 -17 74 -108 74 -69 0 -80 -2 -93 -22 -9 -12 -16 -42 -16 -65 0 -41 -2
-43 -29 -43 -25 0 -29 4 -35 40 -8 50 -27 60 -109 60 -73 0 -86 -9 -98 -68
l-7 -37 -1 48 c-2 71 -23 87 -115 87 -92 0 -106 -14 -106 -102 l0 -57 -42 19
c-55 25 -155 26 -224 2 -48 -17 -52 -17 -90 0 -48 21 -132 23 -179 3 l-35 -14
-22 45 c-13 29 -36 56 -61 72 -37 25 -50 27 -156 29 -64 2 -126 -2 -138 -7z
m237 -56 c45 -18 70 -55 70 -104 0 -37 -23 -85 -47 -99 -17 -9 -17 -11 0 -40
18 -30 57 -136 57 -153 0 -15 -82 -4 -91 12 -5 8 -18 40 -29 72 -16 43 -26 57
-46 62 -14 4 -29 4 -34 1 -6 -4 -10 -40 -10 -81 l0 -74 -40 0 -40 0 0 204 c0
154 3 206 13 209 29 12 159 6 197 -9z m858 -191 l-3 -208 -40 0 -40 0 -3 195
c-1 107 0 200 2 207 3 8 22 13 46 13 l40 0 -2 -207z m502 172 c0 -35 0 -35
-45 -35 -43 0 -45 1 -45 28 0 37 6 42 52 42 37 0 38 -1 38 -35z m-280 -45 l0
-50 45 0 c45 0 45 0 45 -34 0 -34 -1 -35 -42 -38 l-43 -3 -3 -60 c-3 -72 7
-90 50 -90 29 0 33 -4 36 -27 3 -23 -2 -30 -25 -39 -36 -14 -92 -5 -115 18
-13 14 -20 41 -24 111 -7 88 -8 92 -30 92 -21 0 -24 5 -24 35 0 31 3 35 25 35
23 0 25 4 25 43 0 52 4 57 47 57 l33 0 0 -50z m-740 -62 c27 -17 50 -68 50
-112 l0 -36 -84 0 c-47 0 -87 -4 -90 -9 -21 -33 46 -66 113 -55 l42 7 -3 -34
c-3 -30 -7 -34 -43 -42 -60 -13 -139 7 -169 44 -65 77 -30 234 57 253 33 7
104 -2 127 -16z m295 8 c50 -21 56 -42 53 -168 l-3 -113 -32 -3 c-25 -3 -33 1
-33 13 0 9 -3 15 -7 13 -83 -43 -117 -44 -153 -8 -14 14 -20 34 -20 63 0 59
28 84 108 99 61 11 80 29 45 42 -10 4 -46 4 -81 0 l-63 -6 3 33 c3 30 7 35 38
40 62 11 110 9 145 -5z m723 -133 l-3 -148 -40 0 -40 0 -3 134 c-1 74 0 141 2
148 3 8 22 13 46 13 l41 0 -3 -147z m179 127 c5 -19 7 -19 22 -6 30 27 70 30
101 7 l29 -21 36 21 c29 17 42 20 68 12 48 -13 57 -42 55 -173 l-3 -115 -35 0
-35 0 -3 105 c-3 114 -13 135 -52 110 -11 -7 -16 -36 -20 -112 l-5 -103 -35 0
-35 0 -3 107 c-2 97 -4 107 -23 113 -13 4 -27 0 -39 -10 -16 -14 -20 -34 -22
-114 l-3 -96 -35 0 -35 0 -3 134 c-1 74 0 141 2 148 3 7 19 13 37 13 23 0 32
-5 36 -20z m587 -19 c22 -22 30 -41 34 -80 l5 -51 -86 0 c-47 0 -88 -4 -91 -9
-21 -33 46 -66 113 -55 l42 7 -3 -34 c-3 -32 -6 -34 -51 -43 -63 -11 -130 7
-162 45 -64 77 -28 234 58 253 50 10 111 -4 141 -33z m-914 -132 c0 -15 -4
-19 -16 -15 -9 3 -22 6 -30 6 -8 0 -14 4 -14 9 0 8 10 12 53 20 4 0 7 -8 7
-20z"/>
<path d="M2397 1753 c-4 -3 -7 -30 -7 -60 l0 -53 38 0 c66 0 99 70 50 104 -23
16 -69 21 -81 9z"/>
<path d="M2750 1622 c-31 -25 -18 -42 31 -42 46 0 64 24 34 46 -25 19 -38 18
-65 -4z"/>
<path d="M3072 1543 c-32 -6 -46 -37 -26 -58 26 -26 79 -2 86 40 3 21 -16 27
-60 18z"/>
<path d="M4520 1622 c-31 -25 -18 -42 31 -42 46 0 64 24 34 46 -25 19 -38 18
-65 -4z"/>
<path d="M5256 1858 c-9 -12 -16 -41 -16 -64 l0 -41 -74 5 c-92 6 -135 -8
-180 -58 -76 -84 -76 -226 1 -311 44 -48 93 -63 188 -55 158 13 245 15 375 9
52 -3 151 -4 220 -4 121 2 126 3 148 28 l23 26 30 -29 c28 -27 35 -29 114 -29
108 0 125 13 125 97 0 63 -21 98 -60 98 -11 0 -20 5 -20 10 0 6 8 10 18 10 10
0 28 7 40 16 19 13 22 24 22 83 0 73 -16 101 -57 101 -21 0 -33 18 -33 50 0
36 -27 50 -100 50 -60 0 -71 -3 -84 -22 -9 -12 -16 -34 -16 -49 0 -39 -38 -53
-87 -32 -44 18 -180 14 -226 -8 -23 -10 -33 -10 -63 4 -19 9 -47 17 -63 17
-26 0 -29 3 -33 45 -8 67 -19 75 -104 75 -64 0 -75 -3 -88 -22z m124 -103 c0
-41 2 -75 5 -75 4 0 20 7 37 16 37 19 88 12 114 -17 16 -18 19 -37 19 -143 l0
-121 -35 0 -35 0 -3 102 c-2 92 -5 104 -24 114 -16 9 -26 7 -47 -9 -24 -18
-26 -26 -31 -113 l-5 -94 -35 0 -35 0 -3 208 -2 207 40 0 40 0 0 -75z m680 -5
l0 -50 45 0 c45 0 45 0 45 -34 0 -34 -1 -35 -42 -38 l-43 -3 -3 -63 c-4 -75 8
-94 52 -90 27 3 31 0 34 -24 3 -23 -2 -30 -25 -39 -37 -14 -92 -5 -117 20 -16
17 -21 37 -24 111 -4 87 -5 90 -28 90 -21 0 -24 5 -24 35 0 31 3 35 25 35 23
0 25 4 25 43 0 52 4 57 47 57 33 0 33 0 33 -50z m-871 -46 c27 -6 31 -10 31
-41 l0 -34 -44 6 c-40 6 -48 4 -72 -20 -23 -23 -26 -32 -21 -67 8 -57 27 -73
90 -73 51 0 52 -1 52 -30 0 -25 -5 -30 -35 -37 -95 -22 -175 22 -190 102 -26
139 54 221 189 194z m613 -5 c58 -15 69 -47 66 -177 l-3 -107 -33 -3 c-21 -2
-34 2 -38 11 -4 12 -11 11 -42 -4 -45 -24 -59 -24 -98 0 -37 23 -49 60 -33
108 13 39 44 57 122 68 90 14 40 50 -54 39 l-60 -7 3 34 c2 29 8 35 33 40 48
10 97 10 137 -2z m-592 -145 c39 -8 21 -24 -27 -24 -23 0 -33 5 -33 15 0 17
12 18 60 9z"/>
<path d="M5735 1543 c-46 -12 -59 -45 -25 -63 30 -16 75 8 75 40 0 26 -14 32
-50 23z"/>
<path d="M6926 1858 c-9 -12 -16 -39 -16 -60 l0 -38 -225 0 c-212 0 -226 -1
-245 -20 -26 -26 -26 -25 10 -193 37 -171 46 -196 74 -202 11 -3 95 -4 186 -3
l165 3 17 35 c10 21 17 28 18 18 1 -39 36 -58 108 -58 37 0 72 4 78 8 24 15
34 54 35 129 l2 78 7 -66 c9 -75 17 -93 55 -129 24 -23 34 -25 108 -24 45 1
119 2 164 2 45 1 91 6 102 12 13 7 22 7 26 0 3 -5 37 -10 74 -10 98 0 101 4
101 171 0 108 -3 141 -18 169 -21 44 -75 80 -117 80 -36 0 -45 13 -45 60 0 47
-23 60 -100 60 -60 0 -71 -3 -84 -22 -9 -12 -16 -42 -16 -65 0 -36 -3 -43 -19
-43 -20 0 -31 18 -31 50 0 36 -27 50 -100 50 -60 0 -71 -3 -84 -22 -9 -12 -17
-34 -17 -48 -1 -14 -5 -3 -10 25 -4 28 -16 55 -25 62 -11 8 -47 13 -90 13 -64
0 -75 -3 -88 -22z m134 -63 c0 -35 0 -35 -45 -35 -45 0 -45 0 -45 35 0 35 0
35 45 35 45 0 45 0 45 -35z m470 -40 c0 -41 2 -75 5 -75 4 0 20 7 37 16 37 19
88 12 114 -17 16 -18 19 -37 19 -143 l0 -121 -35 0 -35 0 -3 102 c-2 89 -5
104 -22 113 -26 14 -68 -4 -75 -32 -3 -13 -6 -59 -7 -103 l-3 -80 -35 0 -35 0
-3 208 -2 207 40 0 40 0 0 -75z m-250 -5 l0 -50 45 0 c45 0 45 0 45 -35 0 -35
0 -35 -45 -35 l-45 0 0 -69 c0 -77 13 -97 55 -87 23 6 25 4 25 -28 0 -30 -4
-35 -30 -41 -41 -9 -84 2 -106 27 -15 16 -20 40 -22 109 l-4 89 -30 0 c-27 0
-29 2 -26 33 2 27 8 33 31 35 25 3 27 6 27 53 l0 49 40 0 40 0 0 -50z m-700
-112 c22 -142 25 -146 41 -47 19 127 15 119 69 119 54 0 49 10 71 -122 6 -38
14 -66 19 -63 4 2 11 33 14 67 14 118 14 118 57 118 30 0 39 -4 39 -17 0 -31
-52 -258 -63 -270 -5 -7 -26 -13 -47 -13 -21 0 -42 6 -48 13 -5 6 -16 47 -22
90 -7 43 -16 80 -20 82 -5 3 -14 -33 -21 -80 -7 -47 -18 -90 -25 -96 -7 -6
-32 -9 -55 -7 l-43 3 -31 142 c-18 79 -30 145 -27 148 3 3 22 5 43 5 l37 0 12
-72z m478 -75 l-3 -148 -40 0 -40 0 -3 134 c-1 74 0 141 2 148 3 8 22 13 46
13 l41 0 -3 -147z m332 -23 c0 -5 -9 -10 -20 -10 -11 0 -20 5 -20 10 0 6 9 10
20 10 11 0 20 -4 20 -10z"/>
<path d="M8886 1858 c-9 -12 -16 -41 -16 -63 l0 -40 -99 0 c-91 0 -101 -2
-137 -27 -33 -24 -40 -26 -54 -13 -48 44 -149 57 -219 29 -36 -14 -43 -14 -85
0 -69 24 -162 21 -216 -6 -60 -31 -83 -75 -75 -143 8 -62 8 -77 0 -140 -11
-92 30 -123 166 -124 51 -1 76 4 111 23 l44 23 28 -20 c54 -39 166 -35 229 7
l35 24 37 -26 c34 -24 46 -27 119 -26 44 1 169 2 277 3 147 1 200 5 214 15 16
11 24 11 59 -5 76 -35 225 -19 250 26 6 11 12 22 14 24 1 3 18 -11 38 -30 34
-33 36 -34 117 -33 45 1 126 2 180 2 62 1 104 5 113 13 11 9 18 9 26 1 7 -7
43 -12 84 -12 65 0 75 3 92 24 l19 25 39 -27 c34 -24 49 -27 115 -27 65 0 81
4 116 27 57 37 83 96 83 183 0 130 -63 205 -181 213 -49 4 -68 0 -112 -22 -30
-14 -57 -26 -60 -26 -4 0 -7 31 -7 69 0 92 -9 101 -104 101 -105 0 -106 -2
-106 -177 l0 -140 -71 5 c-61 4 -74 2 -99 -17 -30 -22 -80 -29 -80 -11 0 6 8
10 18 10 10 0 28 7 40 16 19 13 22 24 22 83 0 74 -13 96 -60 103 -20 2 -26 10
-31 42 -3 21 -12 42 -20 47 -8 5 -44 9 -81 9 -58 0 -69 -3 -82 -22 -9 -12 -16
-34 -16 -49 0 -38 -38 -53 -84 -34 -46 20 -126 19 -176 -1 -34 -14 -43 -14
-56 -3 -9 7 -50 16 -93 19 l-76 5 -6 48 c-3 27 -12 53 -20 58 -7 5 -44 9 -81
9 -58 0 -69 -3 -82 -22z m126 -145 l3 -116 45 57 c43 56 45 58 83 53 21 -3 41
-8 44 -11 4 -3 -17 -33 -46 -66 -29 -33 -51 -66 -48 -73 2 -7 25 -38 51 -69
25 -31 46 -61 46 -67 0 -15 -73 -14 -91 2 -9 6 -31 32 -50 57 l-34 44 -5 -54
-5 -55 -35 0 -35 0 -3 208 -2 207 39 0 40 0 3 -117z m1158 82 c0 -35 0 -35
-45 -35 -45 0 -45 0 -45 35 0 35 0 35 45 35 45 0 45 0 45 -35z m-470 -45 l0
-50 45 0 c45 0 45 0 45 -35 0 -35 0 -35 -45 -35 l-45 0 0 -69 c0 -77 13 -97
55 -87 23 6 25 4 25 -28 0 -32 -3 -36 -34 -42 -47 -8 -100 11 -115 42 -6 14
-11 61 -11 104 l0 80 -31 0 c-28 0 -30 2 -27 33 2 27 8 33 31 35 25 3 27 6 27
53 l0 49 40 0 40 0 0 -50z m-1477 -46 c34 -6 37 -9 37 -41 l0 -34 -57 6 c-98
10 -116 -33 -24 -55 80 -19 114 -82 76 -137 -21 -29 -87 -46 -144 -38 -56 8
-71 20 -71 53 0 24 1 25 53 18 91 -10 119 32 35 54 -50 14 -88 51 -88 85 0 74
69 107 183 89z m309 -31 c36 -34 52 -84 45 -140 -16 -144 -193 -179 -260 -52
-23 44 -18 129 10 167 48 67 149 79 205 25z m277 31 c27 -6 31 -11 31 -40 l0
-33 -54 2 c-31 1 -60 -3 -67 -10 -6 -6 -14 -32 -16 -56 -5 -39 -2 -49 21 -72
23 -23 31 -25 71 -19 l45 6 0 -35 c0 -33 -2 -35 -44 -41 -82 -13 -146 15 -170
74 -22 56 -20 108 7 160 30 60 89 81 176 64z m657 -19 c30 -19 54 -71 54 -114
l0 -30 -87 -3 c-48 -2 -88 -8 -90 -13 -2 -6 3 -20 11 -30 12 -17 25 -20 81
-19 l66 2 -3 -31 c-3 -28 -8 -32 -43 -40 -87 -18 -167 16 -195 83 -17 42 -8
134 17 168 38 51 132 65 189 27z m702 -122 l-3 -148 -40 0 -40 0 -3 148 -3
147 46 0 46 0 -3 -147z m301 120 c81 -59 79 -197 -2 -257 -20 -15 -44 -21 -77
-21 -88 0 -144 66 -137 163 4 61 28 99 78 125 41 22 100 17 138 -10z m-1606
-139 c-2 -5 -23 -10 -48 -12 -36 -3 -45 0 -45 13 0 13 9 15 48 12 26 -3 46 -9
45 -13z m327 6 c0 -5 -2 -10 -4 -10 -3 0 -8 5 -11 10 -3 6 -1 10 4 10 6 0 11
-4 11 -10z m788 -87 l-3 -48 -45 0 -45 0 -3 48 -3 47 51 0 51 0 -3 -47z"/>
<path d="M8413 1630 c-44 -18 -42 -133 3 -150 29 -11 69 1 78 25 13 35 6 95
-14 115 -22 22 -33 23 -67 10z"/>
<path d="M9355 1624 c-25 -25 -12 -39 35 -39 24 0 45 5 47 11 5 16 -25 44 -47
44 -10 0 -26 -7 -35 -16z"/>
<path d="M10350 1620 c-24 -24 -27 -96 -6 -125 15 -21 70 -25 89 -6 7 7 12 37
12 67 0 44 -4 59 -19 70 -27 19 -52 18 -76 -6z"/>
<path d="M7354 325 c-7 -18 3 -35 21 -35 18 0 26 25 12 39 -15 15 -27 14 -33
-4z"/>
<path d="M6480 222 l0 -99 59 0 c44 -1 64 4 74 16 55 62 10 147 -68 127 -23
-6 -25 -3 -25 24 0 23 -4 30 -20 30 -19 0 -20 -7 -20 -98z m105 -27 c0 -23 -5
-31 -21 -33 -27 -4 -47 21 -39 48 5 16 14 20 33 18 23 -2 27 -8 27 -33z"/>
<path d="M7190 220 c0 -93 1 -100 20 -100 15 0 20 7 20 25 0 14 4 25 10 25 5
0 17 -11 26 -25 10 -15 26 -25 40 -25 31 0 30 11 -1 40 -31 29 -31 33 1 76
l26 34 -26 0 c-16 0 -31 -9 -42 -25 -24 -37 -34 -30 -34 25 0 43 -3 50 -20 50
-19 0 -20 -7 -20 -100z"/>
<path d="M5910 289 c-65 -26 -101 -100 -80 -165 17 -50 82 -78 134 -58 30 11
16 23 -30 26 -37 2 -51 9 -67 30 -18 24 -19 32 -8 67 15 53 52 81 106 81 55 0
77 -24 73 -76 -2 -28 -8 -40 -21 -42 -17 -3 -18 1 -12 42 l7 45 -45 -3 c-25
-1 -52 -8 -60 -15 -21 -17 -29 -58 -17 -81 11 -21 54 -27 65 -10 4 7 12 7 25
0 29 -15 47 -12 70 12 23 25 27 93 7 119 -29 37 -93 49 -147 28z m56 -94 c6
-16 -12 -45 -28 -45 -15 0 -21 30 -8 45 16 19 29 19 36 0z"/>
<path d="M6110 194 c0 -67 2 -74 20 -74 17 0 20 7 20 50 0 38 4 52 19 60 30
15 51 -12 51 -66 0 -37 3 -44 20 -44 17 0 20 7 20 48 0 26 -6 58 -13 72 -11
22 -19 25 -75 27 l-62 1 0 -74z"/>
<path d="M6301 244 c-28 -35 -26 -69 4 -99 51 -52 125 -20 125 53 0 48 -24 72
-73 72 -27 0 -41 -7 -56 -26z m84 -49 c0 -35 -31 -48 -51 -21 -20 27 -6 58 25
54 22 -2 26 -8 26 -33z"/>
<path d="M6660 217 c0 -78 16 -95 90 -95 l60 0 0 74 c0 72 -1 74 -25 74 -24 0
-25 -3 -25 -56 0 -54 0 -55 -27 -52 -26 3 -28 7 -31 56 -3 44 -6 52 -23 52
-16 0 -19 -7 -19 -53z"/>
<path d="M6830 265 c0 -3 11 -33 25 -67 29 -72 30 -80 10 -118 -15 -29 -15
-30 9 -30 20 0 29 12 59 83 61 141 60 137 33 137 -18 0 -25 -8 -35 -40 -6 -22
-15 -40 -20 -40 -4 0 -15 18 -24 40 -11 29 -21 40 -36 40 -12 0 -21 -2 -21 -5z"/>
<path d="M7024 262 c-16 -10 -34 -48 -34 -70 0 -11 9 -31 20 -45 17 -22 27
-25 80 -24 l60 0 0 72 0 72 -58 1 c-32 0 -63 -2 -68 -6z m79 -52 c7 -26 -15
-53 -39 -48 -20 3 -30 29 -20 54 8 22 53 18 59 -6z"/>
<path d="M7350 195 c0 -68 2 -75 20 -75 18 0 20 7 20 75 0 68 -2 75 -20 75
-18 0 -20 -7 -20 -75z"/>
<path d="M1347 223 c-4 -3 -7 -33 -7 -65 l0 -58 2150 0 2150 0 0 65 0 65
-2143 0 c-1179 0 -2147 -3 -2150 -7z"/>
<path d="M7520 165 l0 -65 2150 0 2150 0 0 65 0 65 -2150 0 -2150 0 0 -65z"/>
</g>
</svg>
